<svg viewBox="0 0 48 48" xmlns="http://www.w3.org/2000/svg"><path d="m26 10v-6a3 3 0 0 1 6 0v1a1 1 0 0 1 -2 0v-1a1 1 0 0 0 -2 0v6a1 1 0 0 1 -2 0z" fill="#7c7d7d"/><path d="m20 10v-6a1 1 0 0 0 -2 0v1a1 1 0 0 1 -2 0v-1a3 3 0 0 1 6 0v6a1 1 0 0 1 -2 0z" fill="#747575"/><path d="m27 17h-6a5 5 0 1 1 6 0z" fill="#747575"/><path d="m28.57 15h-3.4a4.17 4.17 0 0 1 -3.56-6.39 5 5 0 0 1 6.96 6.39z" fill="#7c7d7d"/><path d="m24 17c-6.49 8.43-7.39 10.18-10.62 11.74s-7.53 2-10.33-.79c-4.16-4.16-1.59-10.95 3.95-10.95z" fill="#dad7e5"/><path d="m24 17c-5.71 7.43-8.12 12.05-14.34 12.88-5.74-1.05-7.66-8.44-3.31-11.68 2.25-1.69 3.13-1.2 17.65-1.2z" fill="#edebf2"/><path d="m27.3 40.17-.83 1.37c-4.25 7.28-.69 7.28-4.94 0l-.83-1.37a7 7 0 0 0 6.6 0z" fill="#7c7d7d"/><path d="m24 17c-6.58 15.93-6.17 16.11-8.25 16.8a3.57 3.57 0 0 1 -3.7-.85 4.06 4.06 0 0 1 -1.05-3.33c5.21-1.32 6.81-4.62 13-12.62z" fill="#dad7e5"/><path d="m24 17c-2.7 6.54-1.7 4.73-4.39 8.24a12.22 12.22 0 0 1 -8.61 4.76c0-.71-.14.05 2.38-1.21 3.31-1.65 4.27-3.53 10.62-11.79z" fill="#c6c3d8"/><path d="m28.53 28h-9.06l4.53-11z" fill="#ffba55"/><path d="m32.25 33.8c-.09.3 1.16.2-16.43.2a1.18 1.18 0 0 1 -.07-.2c2-.67 2.32-2.4 3.72-5.8h9.06c1.47 3.56 1.74 5.15 3.72 5.8z" fill="#747575"/><path d="m34.62 28.74c-3.31-1.6-4.27-3.48-10.62-11.74 18.38 0 18.49-.38 20.6 1.2 5.88 4.33.4 15.72-9.98 10.54z" fill="#edebf2"/><path d="m37 29.62a4 4 0 0 1 -1 3.38 3.57 3.57 0 0 1 -3.7.85c-2-.67-1.58-.63-8.25-16.8 6.28 8.18 7.83 11.27 12.95 12.57z" fill="#dad7e5"/><path d="m37 29.62v.38a12.19 12.19 0 0 1 -8.61-4.71c-2.7-3.56-1.69-1.74-4.39-8.29 6.05 7.86 7.74 11.29 13 12.62z" fill="#c6c3d8"/><path d="m32.18 34c-3.18 9.29-13.18 9.36-16.36 0z" fill="#ffba55"/><path d="m24 41a7.33 7.33 0 0 1 -3.3-.83 30 30 0 0 1 3.3 6.83c.29-.87.63-1.73 1-2.57-1.76-4-1.88-1.6 1.47-2.89 1.7-2.73.81-.54-2.47-.54z" fill="#747575"/><path d="m31.8 35a11.59 11.59 0 0 1 -2.34 3.56c-3.82 1.44-7.67-.66-9.77-4.56h9.24a3.63 3.63 0 0 0 2.87 1z" fill="#fc6"/><path d="m26.12 28h-6.65l3.33-8.07c1.83 4.43 1.07 2.6 3.32 8.07z" fill="#fc6"/><path d="m28.93 34h-9.24a14.24 14.24 0 0 1 -1.28-3.43l1.06-2.57h6.65c2.03 4.94 2.06 5.31 2.81 6z" fill="#7c7d7d"/></svg>